<svg width="20" height="22" viewBox="0 0 20 22" fill="none" xmlns="http://www.w3.org/2000/svg">
    <path
        d="M14.6327 4.25C13.7968 2.33694 11.8878 1 9.66667 1C6.67513 1 4.25 3.42513 4.25 6.41667V8.61453M4.25 8.61453C4.7607 8.58333 5.39031 8.58333 6.2 8.58333H13.1333C14.9535 8.58333 15.8635 8.58333 16.5588 8.93758C17.1704 9.24915 17.6675 9.74629 17.9791 10.3578C18.3333 11.0531 18.3333 11.9631 18.3333 13.7833V15.3C18.3333 17.1202 18.3333 18.0302 17.9791 18.7255C17.6675 19.337 17.1704 19.8342 16.5588 20.1458C15.8635 20.5 14.9535 20.5 13.1333 20.5H6.2C4.37983 20.5 3.46974 20.5 2.77453 20.1458C2.163 19.8342 1.66582 19.337 1.35423 18.7255C1 18.0302 1 17.1202 1 15.3V13.7833C1 11.9631 1 11.0531 1.35423 10.3578C1.66582 9.74629 2.163 9.24915 2.77453 8.93758C3.16048 8.74096 3.61265 8.65343 4.25 8.61453ZM9.66667 13.4583V15.625"
        stroke="black" stroke-width="1.5" stroke-linecap="round" stroke-linejoin="round" />
</svg>
    