<svg width="19" height="21" viewBox="0 0 19 21" fill="none" xmlns="http://www.w3.org/2000/svg">
    <path fill-rule="evenodd" clip-rule="evenodd"
        d="M3.59375 9.0546V7C3.59375 3.27208 6.23807 0.25 9.5 0.25C12.7619 0.25 15.4063 3.27208 15.4063 7V9.0546C16.3817 9.1379 17.0169 9.348 17.4811 9.8787C18.25 10.7574 18.25 12.1716 18.25 15C18.25 17.8284 18.25 19.2426 17.4811 20.1213C16.7123 21 15.4749 21 13 21H6C3.52512 21 2.28769 21 1.51885 20.1213C0.75 19.2426 0.75 17.8284 0.75 15C0.75 12.1716 0.75 10.7574 1.51885 9.8787C1.98315 9.348 2.61834 9.1379 3.59375 9.0546ZM4.90625 7C4.90625 4.10051 6.96295 1.75 9.5 1.75C12.0371 1.75 14.0938 4.10051 14.0938 7V9.0036C13.7586 9 13.3951 9 13 9H6C5.60493 9 5.24138 9 4.90625 9.0036V7ZM11.25 15C11.25 16.1046 10.4665 17 9.5 17C8.53348 17 7.75 16.1046 7.75 15C7.75 13.8954 8.53348 13 9.5 13C10.4665 13 11.25 13.8954 11.25 15Z"
        fill="#1C274C" />
</svg>
    