<svg width="68" height="68" viewBox="0 0 68 68" fill="none" xmlns="http://www.w3.org/2000/svg">
    <circle cx="34" cy="34" r="34" fill="#D9D9D9" />
    <path fill-rule="evenodd" clip-rule="evenodd"
        d="M24.2188 30.5008V27.3333C24.2188 21.5861 28.3741 16.9271 33.5 16.9271C38.6259 16.9271 42.7813 21.5861 42.7813 27.3333V30.5008C44.3141 30.6293 45.3122 30.9532 46.0418 31.7713C47.25 33.126 47.25 35.3062 47.25 39.6667C47.25 44.0271 47.25 46.2073 46.0418 47.562C44.8336 48.9167 42.8891 48.9167 39 48.9167H28C24.1109 48.9167 22.1664 48.9167 20.9582 47.562C19.75 46.2073 19.75 44.0271 19.75 39.6667C19.75 35.3062 19.75 33.126 20.9582 31.7713C21.6878 30.9532 22.686 30.6293 24.2188 30.5008ZM26.2813 27.3333C26.2813 22.8633 29.5132 19.2396 33.5 19.2396C37.4868 19.2396 40.7188 22.8633 40.7188 27.3333V30.4222C40.1921 30.4167 39.6208 30.4167 39 30.4167H28C27.3792 30.4167 26.8079 30.4167 26.2813 30.4222V27.3333ZM36.25 39.6667C36.25 41.3696 35.0188 42.75 33.5 42.75C31.9812 42.75 30.75 41.3696 30.75 39.6667C30.75 37.9637 31.9812 36.5833 33.5 36.5833C35.0188 36.5833 36.25 37.9637 36.25 39.6667Z"
        fill="#1C274C" />
</svg>
    